<svg width="189" height="170" viewBox="0 0 189 170" fill="none" xmlns="http://www.w3.org/2000/svg">
<rect x="18" y="30" width="140" height="140" rx="8" fill="#C49E85"/>
<path fill-rule="evenodd" clip-rule="evenodd" d="M92 90.4202C97.783 88.6991 102 83.342 102 77C102 69.268 95.732 63 88 63C80.268 63 74 69.268 74 77C74 83.342 78.217 88.6991 84 90.4202V108C84 110.209 85.7909 112 88 112C90.2091 112 92 110.209 92 108V90.4202Z" fill="white"/>
<rect x="37" y="120" width="102" height="34" rx="4" fill="#F8F4F9"/>
<rect x="60.4536" y="128" width="3.0925" height="18" rx="1.54625" fill="#B4B4B4"/>
<rect width="3.02656" height="18.3991" rx="1.51328" transform="matrix(0.544548 0.83873 -0.853327 0.521377 68.7003 131)" fill="#B4B4B4"/>
<rect width="3.02656" height="18.3991" rx="1.51328" transform="matrix(-0.544548 0.83873 0.853327 0.521377 55.2994 131)" fill="#B4B4B4"/>
<rect x="86.4536" y="128" width="3.0925" height="18" rx="1.54625" fill="#B4B4B4"/>
<rect width="3.02656" height="18.3991" rx="1.51328" transform="matrix(0.544548 0.83873 -0.853327 0.521377 94.7003 131)" fill="#B4B4B4"/>
<rect width="3.02656" height="18.3991" rx="1.51328" transform="matrix(-0.544548 0.83873 0.853327 0.521377 81.2994 131)" fill="#B4B4B4"/>
<rect x="112.454" y="128" width="3.0925" height="18" rx="1.54625" fill="#B4B4B4"/>
<rect width="3.02656" height="18.3991" rx="1.51328" transform="matrix(0.544548 0.83873 -0.853327 0.521377 120.7 131)" fill="#B4B4B4"/>
<rect width="3.02656" height="18.3991" rx="1.51328" transform="matrix(-0.544548 0.83873 0.853327 0.521377 107.299 131)" fill="#B4B4B4"/>
<rect x="1" y="65.9999" width="42" height="42" rx="3" fill="#E2B08F" stroke="white" stroke-width="2"/>
<circle cx="22" cy="79.9999" r="6" fill="white"/>
<path d="M13 98.9999C13 94.0294 17.0294 89.9999 22 89.9999C26.9706 89.9999 31 94.0294 31 98.9999V99.9999H13V98.9999Z" fill="white"/>
<path d="M147.167 7.26501C148.322 5.26526 151.208 5.26526 152.363 7.26501L179.21 53.765C180.365 55.765 178.921 58.265 176.612 58.265H122.918C120.609 58.265 119.165 55.765 120.32 53.765L147.167 7.26501Z" fill="#E3B08F" stroke="white" stroke-width="2"/>
<rect x="145.765" y="17.765" width="8" height="27" rx="4" fill="white"/>
<circle cx="149.765" cy="50.765" r="4" fill="white"/>
</svg>
